<svg width="78" height="242" viewBox="0 0 78 242" fill="none" xmlns="http://www.w3.org/2000/svg">
<g clip-path="url(#clip0_8_524)">
<path d="M70.88 241C69.3487 240.995 67.8815 240.384 66.7987 239.301C65.7159 238.218 65.1053 236.751 65.1 235.22V230.22H91.62V228.45H65.1V221.33C64.6409 221.223 64.2316 220.963 63.9387 220.594C63.6457 220.224 63.4863 219.766 63.4863 219.295C63.4863 218.823 63.6457 218.366 63.9387 217.996C64.2316 217.627 64.6409 217.367 65.1 217.26V217.2H64.99V183.05H65.21V217.23H72.7V183.05H65.78C66.78 176.25 65.78 168.91 62.96 161.22C60.4162 154.425 57.0082 147.985 52.82 142.06C50.2905 138.426 47.5665 134.931 44.66 131.59H61.26C62.56 134.59 63.78 137.68 64.89 140.87C69.5999 154.438 72.0492 168.688 72.14 183.05H73.5C73.3981 168.543 70.9012 154.153 66.11 140.46C65.11 137.46 63.97 134.46 62.7 131.59H77.7V183.05H72.91V217.23H84.22V183.05H79.06V131.59H93.62C92.96 132.91 92.33 134.33 91.73 135.8C85.87 150.33 84.11 169.5 83.66 183.03H84.25H84.45V217.21H91.45L91.3 183.04H91.52L91.68 217.22H91.59V217.31C92.0191 217.44 92.3949 217.705 92.662 218.065C92.9291 218.425 93.0733 218.862 93.0733 219.31C93.0733 219.758 92.9291 220.195 92.662 220.555C92.3949 220.915 92.0191 221.18 91.59 221.31V235.31C91.5847 236.841 90.9741 238.308 89.8913 239.391C88.8084 240.474 87.3413 241.085 85.81 241.09L70.88 241ZM90.8 183H85.03C85.2712 175.335 85.9389 167.69 87.03 160.1C88.0978 152.012 90.0909 144.073 92.97 136.44C93.67 134.7 94.42 133.05 95.2 131.54H112.2C109.657 134.179 107.285 136.978 105.1 139.92C100.798 145.617 97.3146 151.888 94.75 158.55C91.7907 166.348 90.4501 174.667 90.81 183H90.8ZM64.8 178.63C63.8 172.53 60.13 160.63 46 149.69C45.62 149.39 45.18 149.1 44.77 148.83L44.59 148.71C41.39 146.54 38.3 144.2 35.33 141.71C31.4977 138.554 27.8547 135.175 24.42 131.59H42.93C46.1018 135.173 49.0603 138.94 51.79 142.87C55.9182 148.688 59.2793 155.013 61.79 161.69C63.8224 167.125 64.8392 172.887 64.79 178.69L64.8 178.63ZM92.31 175.82C92.7515 170.064 94.0212 164.403 96.08 159.01C98.588 152.472 102.001 146.319 106.22 140.73C108.63 137.475 111.274 134.401 114.13 131.53H135.42C129.249 138.159 121.97 143.661 113.91 147.79C107.753 150.954 102.468 155.583 98.52 161.27C95.4804 165.651 93.3548 170.599 92.27 175.82H92.31ZM120.67 123.82H100.27C106.101 109.997 109.159 95.1624 109.27 80.16C109.406 66.6715 107.772 53.2234 104.41 40.16C101.018 26.4885 96.02 13.2665 89.52 0.769958C91.02 0.979959 92.52 1.24998 94.12 1.56998C97.8939 2.34847 101.604 3.40807 105.22 4.73996L104.74 5.21997C107.685 8.40061 110.417 11.7712 112.92 15.31C115.49 18.8947 117.873 22.6096 120.06 26.44C122.725 31.0854 125.064 35.9103 127.06 40.88C132.02 52.8761 134.47 65.7608 134.26 78.74C133.89 94.22 129.26 109.36 120.63 123.74L120.67 123.82ZM57.45 123.82H37.3L36.93 123.46L36.85 123.38C28.1 108.9 23.55 93.67 23.32 78.12C23.2493 65.0783 25.8706 52.1623 31.02 40.18C33.1483 35.12 35.6207 30.2119 38.42 25.49C40.72 21.6117 43.2165 17.8535 45.9 14.23C48.4304 10.7805 51.1759 7.49393 54.12 4.38998L53.65 3.90997C58.4712 2.3297 63.4345 1.22117 68.47 0.599976C67.36 2.59998 65.08 6.94996 62.35 13.3C58.6608 21.8878 55.6288 30.7432 53.28 39.79C49.8373 52.774 48.1324 66.1575 48.21 79.59C48.2752 94.8058 51.4076 109.852 57.42 123.83L57.45 123.82ZM35.57 123.82H17.67C13.1195 118.124 9.26874 111.903 6.20003 105.29C2.19968 96.7052 0.0919873 87.3607 0.0199738 77.89C0.0332094 61.7335 5.06768 45.9806 14.4267 32.8109C23.7857 19.6413 37.0067 9.70603 52.26 4.37997C42.8657 14.792 35.2809 26.7033 29.82 39.62C24.5971 51.7759 21.9416 64.8797 22.02 78.11C22.23 93.85 26.79 109.23 35.58 123.82H35.57ZM122.28 123.82C130.82 109.46 135.28 94.31 135.71 78.82C135.901 65.6484 133.407 52.5761 128.38 40.4C123.149 27.6093 115.822 15.7804 106.7 5.39996C107.41 5.66996 108.13 5.96998 108.82 6.25998C119.156 10.6584 128.424 17.2307 135.994 25.53C143.564 33.8294 149.258 43.6613 152.69 54.3575C156.122 65.0536 157.21 76.3632 155.881 87.5175C154.553 98.6717 150.838 109.409 144.99 119C143.99 120.66 142.91 122.28 141.81 123.81L122.28 123.82ZM98.83 123.82H79.08V-3.05176e-05C82.3012 0.0380266 85.5171 0.271803 88.71 0.699982L88.12 1.02997C88.54 1.77997 90.76 5.85997 93.59 12.41C97.5079 21.5175 100.701 30.92 103.14 40.53C106.47 53.4626 108.091 66.7761 107.96 80.13C107.84 95.153 104.729 110.002 98.81 123.81L98.83 123.82ZM77.73 123.82H58.93L58.8 123.59C52.784 109.697 49.6442 94.7294 49.57 79.59C49.4947 66.2806 51.1759 53.0195 54.57 40.15C57.0464 30.5688 60.297 21.2047 64.29 12.15C67.06 5.85996 69.29 1.86996 69.86 0.799957L69.28 0.459961C72.0762 0.148621 74.8866 -0.018267 77.7 -0.0400391V123.82H77.73Z" fill="url(#paint0_linear_8_524)"/>
</g>
<defs>
<linearGradient id="paint0_linear_8_524" x1="78.2192" y1="-2.83044" x2="78.2192" y2="238.21" gradientUnits="userSpaceOnUse">
<stop stop-color="#9166FE"/>
<stop offset="1" stop-color="#C97AED"/>
</linearGradient>
<clipPath id="clip0_8_524">
<rect width="156.47" height="241.04" fill="white"/>
</clipPath>
</defs>
</svg>
