<svg width="20" height="20" viewBox="0 0 20 20" fill="none" xmlns="http://www.w3.org/2000/svg">
<path d="M19.575 7.025C19.7083 7.49167 19.8125 7.975 19.8875 8.475C19.9625 8.975 20 9.48333 20 10C20 11.4167 19.7417 12.7333 19.225 13.95C18.7083 15.1667 18 16.225 17.1 17.125C16.2 18.025 15.1417 18.7292 13.925 19.2375C12.7083 19.7458 11.4 20 10 20C8.58333 20 7.26667 19.7458 6.05 19.2375C4.83333 18.7292 3.775 18.025 2.875 17.125C1.975 16.225 1.27083 15.1667 0.7625 13.95C0.254167 12.7333 0 11.4167 0 10C0 8.6 0.254167 7.29167 0.7625 6.075C1.27083 4.85833 1.975 3.8 2.875 2.9C3.775 2 4.83333 1.29167 6.05 0.775C7.26667 0.258333 8.58333 0 10 0C11.0833 0 12.1042 0.158333 13.0625 0.475C14.0208 0.791667 14.9167 1.21667 15.75 1.75C15.9333 1.86667 16.0375 2.025 16.0625 2.225C16.0875 2.425 16.0333 2.60833 15.9 2.775C15.7667 2.94167 15.6 3.04167 15.4 3.075C15.2 3.10833 15.0083 3.06667 14.825 2.95C14.125 2.51667 13.3708 2.16667 12.5625 1.9C11.7542 1.63333 10.9 1.5 10 1.5C7.58333 1.5 5.5625 2.3125 3.9375 3.9375C2.3125 5.5625 1.5 7.58333 1.5 10C1.5 12.4167 2.3125 14.4375 3.9375 16.0625C5.5625 17.6875 7.58333 18.5 10 18.5C12.4167 18.5 14.4375 17.6875 16.0625 16.0625C17.6875 14.4375 18.5 12.4167 18.5 10C18.5 9.58333 18.475 9.18333 18.425 8.8C18.375 8.41667 18.3 8.03333 18.2 7.65C18.15 7.45 18.1625 7.25 18.2375 7.05C18.3125 6.85 18.4417 6.70833 18.625 6.625C18.8083 6.54167 18.9958 6.53333 19.1875 6.6C19.3792 6.66667 19.5083 6.80833 19.575 7.025ZM8 14.025L4.95 10.95C4.8 10.8 4.725 10.6167 4.725 10.4C4.725 10.1833 4.80833 9.99167 4.975 9.825C5.125 9.675 5.30833 9.6 5.525 9.6C5.74167 9.6 5.93333 9.675 6.1 9.825L8.525 12.275L18.325 2.475C18.475 2.325 18.6583 2.24583 18.875 2.2375C19.0917 2.22917 19.2833 2.30833 19.45 2.475C19.6167 2.64167 19.7 2.83333 19.7 3.05C19.7 3.26667 19.6167 3.45833 19.45 3.625L9.05 14.025C8.9 14.175 8.72083 14.25 8.5125 14.25C8.30417 14.25 8.13333 14.175 8 14.025Z" fill="#3182CE"/>
</svg>
