<svg width="36" height="36" viewBox="0 0 36 36" fill="none" xmlns="http://www.w3.org/2000/svg">
<path d="M8.77502 26.1752C8.55002 25.9502 8.43752 25.6877 8.43752 25.3877C8.43752 25.0877 8.55002 24.8252 8.77502 24.6002L15.4125 17.9627L8.73752 11.3252C8.51252 11.1002 8.40627 10.8439 8.41877 10.5564C8.43127 10.2689 8.55002 10.0127 8.77502 9.7877C9.00002 9.5627 9.26252 9.4502 9.56252 9.4502C9.86252 9.4502 10.125 9.5627 10.35 9.7877L17.7375 17.1752C17.8625 17.3002 17.95 17.4252 18 17.5502C18.05 17.6752 18.075 17.8127 18.075 17.9627C18.075 18.1127 18.05 18.2564 18 18.3939C17.95 18.5314 17.8625 18.6627 17.7375 18.7877L10.3125 26.2127C10.0875 26.4377 9.83127 26.5439 9.54377 26.5314C9.25627 26.5189 9.00002 26.4002 8.77502 26.1752ZM18.2625 26.1752C18.0375 25.9502 17.925 25.6877 17.925 25.3877C17.925 25.0877 18.0375 24.8252 18.2625 24.6002L24.9 17.9627L18.225 11.3252C18 11.1002 17.8938 10.8439 17.9063 10.5564C17.9188 10.2689 18.0375 10.0127 18.2625 9.7877C18.4875 9.5627 18.75 9.4502 19.05 9.4502C19.35 9.4502 19.6125 9.5627 19.8375 9.7877L27.225 17.1752C27.35 17.3002 27.4375 17.4252 27.4875 17.5502C27.5375 17.6752 27.5625 17.8127 27.5625 17.9627C27.5625 18.1127 27.5375 18.2564 27.4875 18.3939C27.4375 18.5314 27.35 18.6627 27.225 18.7877L19.8 26.2127C19.575 26.4377 19.3188 26.5439 19.0313 26.5314C18.7438 26.5189 18.4875 26.4002 18.2625 26.1752Z" fill="#3182CE"/>
</svg>
