<svg width="32" height="32" viewBox="0 0 32 32" fill="none" xmlns="http://www.w3.org/2000/svg">
<path d="M16 32C24.8366 32 32 24.8366 32 16C32 7.16344 24.8366 0 16 0C7.16344 0 0 7.16344 0 16C0 24.8366 7.16344 32 16 32Z" fill="#F7FAFC"/>
<path d="M16 29.809C23.6265 29.809 29.809 23.6265 29.809 16C29.809 8.37351 23.6265 2.19101 16 2.19101C8.37348 2.19101 2.19098 8.37351 2.19098 16C2.19098 23.6265 8.37348 29.809 16 29.809Z" fill="white"/>
<path d="M16 27.597C22.4049 27.597 27.597 22.4049 27.597 16C27.597 9.59517 22.4049 4.40302 16 4.40302C9.59517 4.40302 4.40302 9.59517 4.40302 16C4.40302 22.4049 9.59517 27.597 16 27.597Z" fill="#1A202C"/>
<path d="M21.012 9.31699H10.988C10.044 9.31699 9.31702 10.044 9.31702 10.988V21.012C9.31702 21.955 10.044 22.683 10.988 22.683H21.012C21.955 22.683 22.683 21.955 22.683 21.012V10.988C22.683 10.044 21.955 9.31699 21.012 9.31699ZM16.01 13.375C17.492 13.375 18.694 14.539 18.694 15.975C18.694 17.411 17.493 18.575 16.01 18.575C14.529 18.575 13.327 17.41 13.327 15.975C13.327 14.539 14.529 13.375 16.01 13.375ZM21.012 20.594C21.012 20.887 20.887 21.012 20.594 21.012H11.405C11.113 21.012 10.987 20.887 10.987 20.594V14.747L12.028 14.973C11.916 15.336 11.856 15.721 11.856 16.12C11.856 18.341 13.716 20.144 16.009 20.144C18.303 20.144 20.162 18.342 20.162 16.12C20.162 15.721 20.101 15.337 19.99 14.973L21.011 14.747V20.594H21.012ZM21.012 13.076C21.012 13.307 20.825 13.494 20.594 13.494H18.923C18.692 13.494 18.505 13.307 18.505 13.076V11.405C18.505 11.174 18.692 10.987 18.923 10.987H20.594C20.825 10.987 21.012 11.174 21.012 11.405V13.076Z" fill="white"/>
</svg>
