<svg width="32" height="32" viewBox="0 0 32 32" fill="none" xmlns="http://www.w3.org/2000/svg">
<path d="M16 32C24.8366 32 32 24.8366 32 16C32 7.16344 24.8366 0 16 0C7.16344 0 0 7.16344 0 16C0 24.8366 7.16344 32 16 32Z" fill="#F7FAFC"/>
<path d="M16 29.809C23.6265 29.809 29.809 23.6265 29.809 16C29.809 8.37351 23.6265 2.19101 16 2.19101C8.37351 2.19101 2.19101 8.37351 2.19101 16C2.19101 23.6265 8.37351 29.809 16 29.809Z" fill="white"/>
<path d="M16 27.597C22.4049 27.597 27.597 22.4049 27.597 16C27.597 9.59517 22.4049 4.40302 16 4.40302C9.59517 4.40302 4.40302 9.59517 4.40302 16C4.40302 22.4049 9.59517 27.597 16 27.597Z" fill="#1A202C"/>
<path d="M14.113 23.273H17.118V16H19.123L19.389 13.494H17.119L17.122 12.239C17.122 11.586 17.184 11.235 18.122 11.235H19.375V8.72699H17.37C14.961 8.72699 14.114 9.94299 14.114 11.988V13.493H12.613V16H14.114V23.273H14.113Z" fill="white"/>
</svg>
