<svg width="32" height="32" viewBox="0 0 32 32" fill="none" xmlns="http://www.w3.org/2000/svg">
<path d="M16 32C24.8366 32 32 24.8366 32 16C32 7.16344 24.8366 0 16 0C7.16344 0 0 7.16344 0 16C0 24.8366 7.16344 32 16 32Z" fill="#F7FAFC"/>
<path d="M16 29.809C23.6265 29.809 29.809 23.6265 29.809 16C29.809 8.37351 23.6265 2.19101 16 2.19101C8.37348 2.19101 2.19098 8.37351 2.19098 16C2.19098 23.6265 8.37348 29.809 16 29.809Z" fill="white"/>
<path d="M16 27.597C22.4049 27.597 27.597 22.4049 27.597 16C27.597 9.59517 22.4049 4.40302 16 4.40302C9.59517 4.40302 4.40302 9.59517 4.40302 16C4.40302 22.4049 9.59517 27.597 16 27.597Z" fill="#1A202C"/>
<path d="M22.774 21.474V16.464C22.774 13.78 21.341 12.531 19.431 12.531C17.889 12.531 17.199 13.379 16.814 13.974V12.736H13.91C13.948 13.556 13.91 21.473 13.91 21.473H16.814V16.593C16.814 16.333 16.833 16.072 16.91 15.885C17.12 15.363 17.597 14.823 18.399 14.823C19.45 14.823 19.87 15.624 19.87 16.798V21.473L22.774 21.474ZM10.85 11.545C11.862 11.545 12.493 10.873 12.493 10.035C12.474 9.178 11.862 8.526 10.869 8.526C9.87601 8.526 9.22601 9.178 9.22601 10.035C9.22601 10.874 9.85601 11.545 10.831 11.545H10.85ZM12.302 21.474V12.737H9.39801V21.474H12.302Z" fill="white"/>
</svg>
