<svg width="32" height="32" viewBox="0 0 32 32" fill="none" xmlns="http://www.w3.org/2000/svg">
<path d="M16 32C24.8366 32 32 24.8366 32 16C32 7.16344 24.8366 0 16 0C7.16344 0 0 7.16344 0 16C0 24.8366 7.16344 32 16 32Z" fill="#F7FAFC"/>
<path d="M16 29.809C23.6265 29.809 29.809 23.6265 29.809 16C29.809 8.37351 23.6265 2.19101 16 2.19101C8.37351 2.19101 2.19101 8.37351 2.19101 16C2.19101 23.6265 8.37351 29.809 16 29.809Z" fill="white"/>
<path d="M16 27.597C22.4049 27.597 27.597 22.4049 27.597 16C27.597 9.59517 22.4049 4.40302 16 4.40302C9.59517 4.40302 4.40302 9.59517 4.40302 16C4.40302 22.4049 9.59517 27.597 16 27.597Z" fill="#1A202C"/>
<path d="M18.049 10.261C16.766 10.728 15.956 11.932 16.048 13.249L16.079 13.757L15.566 13.695C13.698 13.456 12.066 12.647 10.681 11.288L10.004 10.614L9.82998 11.112C9.46098 12.222 9.69698 13.395 10.466 14.184C10.876 14.62 10.784 14.682 10.076 14.423C9.82998 14.34 9.61398 14.278 9.59398 14.309C9.52198 14.382 9.76798 15.326 9.96298 15.7C10.23 16.219 10.774 16.727 11.369 17.028L11.872 17.267L11.277 17.277C10.702 17.277 10.682 17.287 10.744 17.506C10.949 18.18 11.76 18.897 12.663 19.208L13.299 19.425L12.745 19.757C11.924 20.235 10.959 20.504 9.99398 20.525C9.53198 20.535 9.15198 20.577 9.15198 20.608C9.15198 20.711 10.404 21.292 11.133 21.521C13.319 22.195 15.916 21.905 17.866 20.753C19.252 19.933 20.637 18.304 21.284 16.726C21.633 15.886 21.982 14.35 21.982 13.614C21.982 13.136 22.013 13.074 22.587 12.504C22.926 12.172 23.244 11.809 23.306 11.705C23.409 11.508 23.398 11.508 22.875 11.684C22.003 11.996 21.879 11.954 22.311 11.487C22.629 11.155 23.009 10.553 23.009 10.377C23.009 10.346 22.855 10.398 22.68 10.491C22.495 10.595 22.085 10.751 21.777 10.844L21.223 11.021L20.72 10.678C20.443 10.491 20.053 10.284 19.848 10.222C19.322 10.074 18.522 10.095 18.049 10.261Z" fill="white"/>
</svg>
