<svg width="64" height="64" viewBox="0 0 64 64" fill="none" xmlns="http://www.w3.org/2000/svg">
<g clip-path="url(#clip0_6_237)">
<path d="M10.2071 12.0417L30.6056 23.5809C30.8183 23.7012 31.0517 23.7595 31.2828 23.7595C31.6716 23.7595 32.0545 23.595 32.3237 23.2846L48.5729 4.54487L49.0634 7.77697C49.1668 8.45875 49.7537 8.94736 50.423 8.94736C50.4917 8.94736 50.5613 8.94213 50.6313 8.93153C51.383 8.8174 51.9 8.11552 51.7858 7.3638L50.8456 1.17013C50.7881 0.79055 50.5747 0.452415 50.2569 0.237088C49.9392 0.021761 49.5458 -0.0512078 49.1722 0.0359418L43.0857 1.45402C42.3452 1.62652 41.8848 2.36668 42.0573 3.10724C42.2298 3.84781 42.9695 4.3082 43.7105 4.13569L45.6815 3.67654L30.981 20.6298L11.5628 9.64497C10.9008 9.27035 10.0607 9.50358 9.68667 10.1654C9.31219 10.8272 9.54528 11.6672 10.2071 12.0417Z" fill="#3182CE"/>
<path d="M5.47611 57.8197H19.3818C20.1422 57.8197 20.7585 57.2033 20.7585 56.4429V26.5713C20.7585 25.8109 20.1422 25.1945 19.3818 25.1945H5.47611C4.71572 25.1945 4.09933 25.8109 4.09933 26.5713V56.4429C4.09933 57.2033 4.71572 57.8197 5.47611 57.8197ZM6.85288 27.948H18.005V55.0661H6.85288V27.948Z" fill="#3182CE"/>
<path d="M43.2415 15.7556V56.4429C43.2415 57.2033 43.8579 57.8197 44.6182 57.8197H57.4939C58.2543 57.8197 58.8707 57.2033 58.8707 56.4429V15.7556C58.8707 14.9953 58.2543 14.3789 57.4939 14.3789H44.6182C43.858 14.3789 43.2415 14.9953 43.2415 15.7556ZM45.995 17.1324H56.1172V55.0662H45.995V17.1324Z" fill="#3182CE"/>
<path d="M25.5622 38.0702C24.8018 38.0702 24.1854 38.6866 24.1854 39.447V56.4429C24.1854 57.2033 24.8018 57.8197 25.5622 57.8197H38.4379C39.1983 57.8197 39.8147 57.2033 39.8147 56.4429V39.447C39.8147 38.6866 39.1983 38.0702 38.4379 38.0702H25.5622ZM37.0611 55.0661H26.939V40.8237H37.0611V55.0661Z" fill="#3182CE"/>
<path d="M59.5541 61.2465H4.446C3.68561 61.2465 3.06923 61.8628 3.06923 62.6232C3.06923 63.3836 3.68561 64 4.446 64H59.5541C60.3145 64 60.9309 63.3836 60.9309 62.6232C60.9309 61.8628 60.3145 61.2465 59.5541 61.2465Z" fill="#3182CE"/>
</g>
<defs>
<clipPath id="clip0_6_237">
<rect width="64" height="64" fill="white"/>
</clipPath>
</defs>
</svg>
