<svg width="64" height="64" viewBox="0 0 64 64" fill="none" xmlns="http://www.w3.org/2000/svg">
<path d="M50.2226 0.581089C50.0164 0.22161 49.6338 0 49.2194 0H25.3771C24.8809 0 24.4398 0.316607 24.2811 0.786815L14.063 31.0625C13.944 31.4155 14.0023 31.8043 14.2194 32.1069C14.4367 32.4094 14.7865 32.589 15.159 32.589H24.8457L13.6971 62.4387C13.5 62.9664 13.7119 63.5596 14.1989 63.843C14.3809 63.9488 14.5813 64 14.7801 64C15.1132 64 15.4413 63.8563 15.6678 63.5856L46.7006 26.498C46.9888 26.1535 47.0516 25.6733 46.8614 25.2663C46.6714 24.8593 46.2627 24.5991 45.8135 24.5991H36.8544L50.2179 1.74049C50.4271 1.38271 50.4289 0.940569 50.2226 0.581089ZM33.8396 25.1717C33.6305 25.5295 33.6287 25.9717 33.835 26.3311C34.0412 26.6906 34.4238 26.9122 34.8382 26.9122H43.3372L18.2267 56.9225L27.596 31.837C27.7286 31.482 27.6788 31.0844 27.4626 30.7729C27.2466 30.4615 26.8916 30.2757 26.5125 30.2757H16.7701L26.2074 2.31325H47.2033L33.8396 25.1717Z" fill="#3182CE"/>
</svg>
